<?xml version="1.0" standalone="no"?>
<!DOCTYPE svg PUBLIC "-//W3C//DTD SVG 20010904//EN"
 "http://www.w3.org/TR/2001/REC-SVG-20010904/DTD/svg10.dtd">
<svg version="1.0" xmlns="http://www.w3.org/2000/svg"
 width="500.000000pt" height="500.000000pt" viewBox="0 0 500.000000 500.000000"
 preserveAspectRatio="xMidYMid meet">
<metadata>
Created by potrace 1.11, written by Peter Selinger 2001-2013
</metadata>
<g transform="translate(0.000000,500.000000) scale(0.100000,-0.100000)"
fill="#000000" stroke="none">
<path d="M2470 4541 l0 -231 60 0 c34 0 104 -5 158 -11 574 -62 1090 -358
1433 -823 33 -44 59 -83 59 -87 0 -4 -15 -3 -32 2 -134 39 -380 53 -511 28
l-58 -10 -62 56 c-181 165 -471 309 -722 359 -78 16 -243 35 -297 36 l-28 0 0
-230 0 -230 43 0 c72 0 227 -29 322 -61 93 -31 222 -95 271 -134 l28 -22 -75
-84 c-41 -46 -85 -97 -98 -114 l-23 -30 -91 3 c-109 4 -179 -17 -244 -73 -23
-19 -44 -35 -48 -35 -10 0 -146 288 -203 430 -54 134 -93 241 -138 385 l-29
90 -283 3 -282 2 0 -763 c0 -475 -4 -785 -10 -818 -18 -95 -73 -195 -148 -268
-82 -81 -170 -126 -288 -149 -80 -15 -90 -15 -172 2 -47 9 -111 29 -141 44
-76 37 -190 147 -230 221 -63 119 -61 82 -61 934 l0 777 -280 0 -280 0 0 -781
c0 -747 1 -785 20 -881 42 -203 97 -325 221 -488 170 -223 427 -366 727 -405
123 -15 142 -15 257 -1 265 35 476 139 657 323 147 152 236 317 285 533 8 38
17 147 20 263 3 108 8 197 12 197 3 0 22 -33 41 -73 67 -138 281 -483 343
-554 10 -12 17 -26 13 -31 -3 -5 -8 -22 -10 -39 -3 -17 -29 -136 -57 -264 -28
-129 -60 -279 -71 -334 -11 -55 -23 -116 -28 -135 -4 -19 -16 -71 -25 -115 -9
-44 -20 -96 -25 -115 -4 -19 -13 -57 -19 -85 -49 -232 -84 -401 -95 -457 l-14
-68 288 0 c322 0 291 -8 305 75 3 22 15 76 25 120 10 44 23 105 29 135 12 56
15 72 31 150 13 60 69 324 80 375 4 22 15 74 24 115 8 41 18 86 21 100 3 14 8
41 11 60 4 19 8 38 10 42 3 4 42 -16 89 -43 165 -97 328 -150 540 -175 127
-14 148 -14 266 1 277 35 484 136 674 329 227 231 340 540 321 874 -19 334
-103 665 -244 955 -127 263 -260 453 -462 661 -218 224 -418 370 -695 507
-309 152 -626 235 -982 255 l-123 7 0 -232z m1619 -1731 c43 -21 86 -53 136
-103 128 -128 189 -302 166 -477 -31 -231 -219 -416 -478 -470 -84 -17 -111
-19 -165 -11 -175 29 -321 85 -461 179 -41 29 -78 56 -81 61 -3 4 1 46 10 92
8 46 21 120 28 164 29 169 108 345 196 438 69 72 65 75 109 -59 32 -95 61
-249 61 -321 l0 -43 231 0 231 0 -6 88 c-13 168 -36 277 -103 486 -5 17 -2 18
28 12 19 -3 63 -20 98 -36z"/>
</g>
</svg>
